<!-- MacroMate Food - Icon Only (Soft Orange Theme) -->
<svg width="192" height="192" viewBox="0 0 192 192" fill="none" xmlns="http://www.w3.org/2000/svg" role="img" aria-label="MacroMate Food icon (Soft Orange)">
  <style>
    :root {
      --primary: #FDBA74;
      --primary-dark: #FB923C;
      --accent: #F59E0B;
    }
  </style>
  <defs>
    <linearGradient id="gPrimaryOrange" x1="0" y1="0" x2="0" y2="1">
      <stop offset="0" stop-color="var(--primary)"/>
      <stop offset="1" stop-color="var(--primary-dark)"/>
    </linearGradient>
    <linearGradient id="gLensWarm" x1="0" y1="0" x2="1" y2="1">
      <stop offset="0" stop-color="#FED7AA"/>
      <stop offset="1" stop-color="#FB923C"/>
    </linearGradient>
  </defs>

  <rect x="16" y="32" width="160" height="120" rx="20" fill="url(#gPrimaryOrange)"/>
  <rect x="132" y="20" width="36" height="20" rx="6" fill="var(--accent)"/>

  <circle cx="96" cy="92" r="36" fill="url(#gLensWarm)"/>
  <path d="M96 66 C83 72,77 87,80 100 C92 100,104 93,110 83 C113 77,108 69,96 66Z"
        fill="#ffffff" fill-opacity="0.95"/>
  <rect x="150" y="46" width="8" height="8" rx="2" fill="#ffffff" opacity="0.9"/>
  <rect x="138" y="50" width="8" height="8" rx="2" fill="#ffffff" opacity="0.8"/>
  <rect x="144" y="60" width="8" height="8" rx="2" fill="#ffffff" opacity="0.7"/>

  <g transform="translate(64,132)">
    <rect x="0"  y="-12" width="12" height="12" rx="2" fill="#FFFFFF" opacity="0.92"/>
    <rect x="16" y="-18" width="12" height="18" rx="2" fill="#FFFFFF" opacity="0.92"/>
    <rect x="32" y="-26" width="12" height="26" rx="2" fill="#FFFFFF" opacity="0.92"/>
    <rect x="48" y="-16" width="12" height="16" rx="2" fill="#FFFFFF" opacity="0.92"/>
  </g>
</svg>
